# AST/ASF file generated using VICON BodyLanguage
# -----------------------------------------------
:version 1.10
:name VICON
:units
  mass 1.0
  length 0.45
  angle deg
:documentation
   .ast/.asf automatically generated from VICON data using
   VICON BodyBuilder and BodyLanguage model FoxedUp or BRILLIANT.MOD
:root
   order TX TY TZ RX RY RZ
   axis XYZ
   position 0 0 0  
   orientation 0 0 0 
:bonedata
  begin
     id 1 
     name lhipjoint
     direction 0.596438 -0.722117 0.35044 
     length 2.43043 
     axis 0 0 0  XYZ
  end
  begin
     id 2 
     name lfemur
     direction 0.34202 -0.939693 0  
     length 7.0339  
     axis 0 0 20  XYZ
    dof rx ry rz
    limits (-160.0 20.0)
           (-70.0 70.0)
           (-60.0 70.0)
  end
  begin
     id 3 
     name ltibia
     direction 0.34202 -0.939693 0   
     length 7.56602   
     axis 0 0 20   XYZ
    dof rx
    limits (-10.0 170.0)
  end
  begin
     id 4 
     name lfoot
     direction 0.0985677 -0.270812 0.957572   
     length 1.85172   
     axis -90 7.62852e-016 20   XYZ
    dof rx rz
    limits (-45.0 90.0)
           (-70.0 20.0)
  end
  begin
     id 5 
     name ltoes
     direction 1.53534e-011 -4.21843e-011 1   
     length 0.929904   
     axis -90 7.62852e-016 20   XYZ
    dof rx
    limits (-90.0 20.0)
  end
  begin
     id 6 
     name rhipjoint
     direction -0.585088 -0.729594 0.354068   
     length 2.40552  
     axis 0 0 0  XYZ 
  end
  begin
     id 7 
     name rfemur
     direction -0.34202 -0.939693 0   
     length 7.12573   
     axis 0 0 -20   XYZ
    dof rx ry rz
    limits (-160.0 20.0)
           (-70.0 70.0)
           (-70.0 60.0)
  end
  begin
     id 8 
     name rtibia
     direction -0.34202 -0.939693 0   
     length 7.35777   
     axis 0 0 -20   XYZ
    dof rx
    limits (-10.0 170.0)
 end
 begin
     id 9 
     name rfoot
     direction -0.120907 -0.33219 0.935431   
     length 2.0994  
     axis -90 -7.62852e-016 -20   XYZ
    dof rx rz
    limits (-45.0 90.0)
           (-20.0 70.0)
  end
  begin
     id 10 
     name rtoes
     direction -1.53577e-011 -4.21787e-011 1   
     length 1.04244   
     axis -90 -7.62852e-016 -20   XYZ
    dof rx
    limits (-90.0 20.0)
  end
  begin
     id 11 
     name lowerback
     direction 0.00268363 0.993603 -0.112896   
     length 2.15839   
     axis 0 0 0   XYZ
    dof rx ry rz
    limits (-20.0 45.0)
           (-30.0 30.0)
           (-30.0 30.0)
  end
  begin
     id 12 
     name upperback
     direction 0.0272563 0.999411 -0.0208618   
     length 2.16443   
     axis 0 0 0   XYZ
    dof rx ry rz
    limits (-20.0 45.0)
           (-30.0 30.0)
           (-30.0 30.0)
  end
  begin
     id 13 
     name thorax
     direction 0.0254655 0.999174 0.0316806   
     length 2.19003   
     axis 0 0 0   XYZ
    dof rx ry rz
    limits (-20.0 45.0)
           (-30.0 30.0)
           (-30.0 30.0)
  end
  begin
     id 14 
     name lowerneck
     direction -0.0102178 0.988048 0.15381   
     length 1.61507   
     axis 0 0 0   XYZ
    dof rx ry rz
    limits (-20.0 45.0)
           (-30.0 30.0)
           (-30.0 30.0)
  end
  begin
     id 15 
     name upperneck
     direction -0.0061965 0.994088 -0.108398   
     length 1.64042   
     axis 0 0 0   XYZ
    dof rx ry rz
    limits (-20.0 45.0)
           (-30.0 30.0)
           (-30.0 30.0)
  end
  begin
     id 16
     name head
     direction -0.00151929 0.998591 -0.0530385  
     length 1.64343  
     axis 0 0 0   XYZ
    dof rx ry rz
    limits (-20.0 45.0)
           (-30.0 30.0)
           (-30.0 30.0)
  end
  begin
     id 17 
     name lclavicle
     direction 0.948974 0.284245 -0.136574  
     length 3.3483  
     axis 0 0 0   XYZ
    dof ry rz
    limits (-20.0 10.0)
           (0.0 20.0)
  end
  begin
     id 18 
     name lhumerus
     direction 1 -4.48961e-011 1.68576e-027   
     length 4.93485   
     axis -180 -30 -90   XYZ
    dof rx ry rz
    limits (-60.0 90.0)
           (-90.0 90.0)
           (-90.0 90.0)
  end
  begin
     id 19
     name lradius
     direction 1 -4.48965e-011 -2.46405e-027   
     length 3.41719   
     axis -180 -30 -90   XYZ
    dof rx
    limits (-10.0 170.0)
  end
  begin
     id 20
     name lwrist
     direction 1 -4.48968e-011 -8.00486e-028   
     length 1.7086   
     axis 3.27501e-015 90 90   XYZ
    dof ry
    limits (-180.0 0.0)
 end
  begin
     id 21 
     name lhand
     direction 1 -4.48977e-011 -1.60161e-027   
     length 0.6241   
     axis 1.02148e-015 90 90   XYZ
    dof rx rz
    limits (-90.0 90.0)
           (-45.0 45.0)
  end
  begin
     id 22 
     name lfingers
     direction 1 -4.49049e-011 -3.21275e-027   
     length 0.503166   
     axis 2.04295e-015 90 90   XYZ
    dof rx
    limits (0.0 90.0)
  end
  begin
     id 23
     name lthumb
     direction 0.707107 -6.34975e-011 0.707107   
     length 0.722448   
     axis -90 45 -1.62303e-014   XYZ
    dof rx rz
    limits (-45.0 45.0)
           (-45.0 45.0)
  end
  begin
     id 24 
     name rclavicle
     direction -0.904485 0.355099 -0.236246   
     length 3.18329  
     axis 0 0 0   XYZ 
    dof ry rz
    limits (-10.0 20.0)
           (-20.0 0.0)
  end
  begin
     id 25 
     name rhumerus
     direction -1 -4.48953e-011 1.32816e-027  
     length 5.22034   
     axis -180 30 90   XYZ
    dof rx ry rz
    limits (-90.0 60.0)
           (-90.0 90.0)
           (-90.0 90.0)
  end
  begin
     id 26 
     name rradius
     direction -1 -4.48965e-011 -3.93727e-027   
     length 3.41809   
     axis -180 30 90   XYZ
    dof rx
    limits (-10.0 170.0)
  end
  begin
     id 27 
     name rwrist
     direction -1 -4.48962e-011 -8.003e-028   
     length 1.70904   
     axis 3.27501e-015 -90 -90   XYZ
    dof ry
    limits (-180.0 0.0)
  end
  begin
     id 28
     name rhand
     direction -1 -4.49008e-011 -1.60365e-027   
     length 0.77534   
     axis 1.02148e-015 -90 -90   XYZ
    dof rx rz
    limits (-90.0 90.0)
           (-45.0 45.0)
  end
  begin
     id 29
     name rfingers
     direction -1 -4.49001e-011 -3.2064e-027   
     length 0.625099   
     axis 2.04295e-015 -90 -90   XYZ
    dof rx
    limits (0.0 90.0)
  end
  begin
     id 30
     name rthumb
     direction -0.707107 -6.34989e-011 0.707107   
     length 0.897521   
     axis -90 -45 1.62303e-014   XYZ
    dof rx rz
    limits (-45.0 45.0)
           (-45.0 45.0)
  end
:hierarchy
  begin
    root lhipjoint rhipjoint lowerback
    lhipjoint lfemur
    lfemur ltibia
    ltibia lfoot
    lfoot ltoes
    rhipjoint rfemur
    rfemur rtibia
    rtibia rfoot
    rfoot rtoes
    lowerback upperback
    upperback thorax
    thorax lowerneck lclavicle rclavicle
    lowerneck upperneck
    upperneck head
    lclavicle lhumerus
    lhumerus lradius
    lradius lwrist
    lwrist lhand lthumb
    lhand lfingers
    rclavicle rhumerus
    rhumerus rradius
    rradius rwrist
    rwrist rhand rthumb
    rhand rfingers
  end

#!OML:ASF \\sashay\E\Suitcase\Project 1\Capture day 1\Session 1\Male1.ASF
:FULLY-SPECIFIED
:DEGREES
90
root 0.27408 17.433 -34.1552 4.96063 5.29998 -4.73129
lowerback 8.11505 -2.5658 2.27359
upperback 0.305113 -3.09386 2.46487
thorax -4.21574 -1.55304 1.64077
lowerneck -9.90448 -6.46549 -0.0707618
upperneck 11.2906 -9.58102 6.40839
head 5.35416 -4.25785 1.26987
rclavicle -7.34882e-015 -2.38542e-015
rhumerus -38.1979 -34.6965 -62.61
rradius 17.8896
rwrist 3.23285
rhand -16.5551 17.4369
rfingers 7.12502
rthumb 9.66465 -12.3213
lclavicle -7.34882e-015 -2.38542e-015
lhumerus -34.5836 2.85869 83.4087
lradius 41.1522
lwrist -2.23197
lhand -3.35633 42.4275
lfingers 7.12502
lthumb 22.372 71.1521
rfemur -13.299 -0.212068 29.98
rtibia 26.1975
rfoot -19.0849 -9.8773
rtoes 10.5547
lfemur -20.9911 -8.80983 -15.9055
ltibia 38.7035
lfoot -23.8255 3.3932
ltoes 9.21403
91
root 0.265657 17.4208 -34.1586 4.76785 5.36803 -4.65023
lowerback 8.32598 -2.55126 2.187
upperback 0.308496 -3.07412 2.46235
thorax -4.32611 -1.54133 1.69507
lowerneck -9.8624 -6.30619 -0.0966492
upperneck 11.4619 -9.37018 6.38616
head 5.3933 -4.15289 1.28325
rclavicle 4.56584e-015 1.98288e-014
rhumerus -38.2278 -34.6785 -62.4788
rradius 17.8107
rwrist 3.03363
rhand -16.7998 17.2699
rfingers 7.12502
rthumb 9.42847 -12.4993
lclavicle 4.56584e-015 1.98288e-014
lhumerus -34.8113 3.0169 83.3814
lradius 41.1028
lwrist -2.36961
lhand -3.35644 41.7397
lfingers 7.12502
lthumb 22.3718 70.4643
rfemur -13.1194 -0.204686 29.9294
rtibia 26.2147
rfoot -19.1659 -9.70101
rtoes 10.7005
lfemur -20.905 -8.57048 -16.1143
ltibia 38.9476
lfoot -23.9976 2.86058
ltoes 9.04639
92
root 0.25736 17.4185 -34.1624 4.67614 5.28442 -4.55033
lowerback 8.25114 -2.47752 2.08674
upperback 0.47003 -2.99488 2.42437
thorax -4.11355 -1.50039 1.69248
lowerneck -9.91446 -6.25759 -0.0894763
upperneck 11.6162 -9.30792 6.31782
head 5.44427 -4.12052 1.26239
rclavicle -2.70844e-015 -2.38542e-015
rhumerus -38.2827 -35.353 -62.1098
rradius 17.7461
rwrist 3.6908
rhand -16.4986 17.8392
rfingers 7.12502
rthumb 9.71917 -11.9166
lclavicle -2.70844e-015 -2.38542e-015
lhumerus -34.7726 2.9947 83.394
lradius 41.0585
lwrist -2.58332
lhand -3.51573 42.1067
lfingers 7.12502
lthumb 22.2189 70.8496
rfemur -13.068 -0.228218 29.847
rtibia 26.3183
rfoot -19.1216 -9.97816
rtoes 11.6539
lfemur -20.8958 -8.1762 -16.3427
ltibia 39.1171
lfoot -24.3605 2.82742
ltoes 8.65448
93
root 0.251698 17.4222 -34.1674 4.58835 5.26468 -4.66686
lowerback 8.21975 -2.41442 2.15401
upperback 0.568351 -2.90546 2.50261
thorax -3.99404 -1.45649 1.72062
lowerneck -9.60708 -6.20409 0.0383409
upperneck 11.2889 -9.19233 6.09812
head 5.26946 -4.09113 1.1995
rclavicle 6.48535e-015 -2.68359e-015
rhumerus -38.0839 -35.4267 -62.0943
rradius 17.6212
rwrist 3.74388
rhand -16.832 17.7177
rfingers 7.12502
rthumb 9.39745 -12.0528
lclavicle 6.48535e-015 -2.68359e-015
lhumerus -34.573 2.86224 83.536
lradius 40.6633
lwrist -2.30419
lhand -3.615 41.987
lfingers 7.12502
lthumb 22.1236 70.7412
rfemur -13.0354 -0.360398 30.0137
rtibia 26.4335
rfoot -19.2026 -9.60279
rtoes 11.0335
lfemur -20.7789 -7.79792 -16.2918
ltibia 39.2272
lfoot -24.4954 2.52548
ltoes 8.15753
94
root 0.248735 17.4095 -34.1671 4.4231 5.17404 -4.58617
lowerback 8.25747 -2.35277 2.05819
upperback 0.703103 -2.83504 2.49815
thorax -3.87132 -1.41979 1.75862
lowerneck -9.69582 -6.06943 0.272688
upperneck 11.5613 -9.01009 5.70168
head 5.33362 -4.00834 1.04935
rclavicle 7.57867e-015 2.98177e-016
rhumerus -38.1019 -35.6945 -61.8541
rradius 17.606
rwrist 3.95628
rhand -16.8536 17.8375
rfingers 7.12502
rthumb 9.37663 -11.934
lclavicle 7.57867e-015 2.98177e-016
lhumerus -34.5081 3.04187 83.4781
lradius 40.2918
lwrist -2.86557
lhand -3.3485 41.1301
lfingers 7.12502
lthumb 22.3795 69.8538
rfemur -12.9068 -0.0475631 29.9145
rtibia 26.5886
rfoot -19.4876 -9.3951
rtoes 11.9744
lfemur -20.589 -7.59133 -16.5325
ltibia 39.2781
lfoot -24.8031 2.73375
ltoes 6.14651
95
root 0.245952 17.4053 -34.17 4.34442 5.18192 -4.47389
lowerback 8.12322 -2.40325 2.13497
upperback 0.801898 -2.90717 2.40173
thorax -3.70152 -1.45726 1.61414
lowerneck -9.71008 -5.89946 0.245896
upperneck 11.8687 -8.76804 5.4939
head 5.4159 -3.89598 1.00421
rclavicle 1.65364e-014 -1.70955e-014
rhumerus -37.8731 -35.1169 -62.3713
rradius 17.7825
rwrist 3.33181
rhand -16.9237 17.722
rfingers 7.12502
rthumb 9.30898 -12.0525
lclavicle 1.65364e-014 -1.70955e-014
lhumerus -34.2621 3.43906 83.2638
lradius 39.6503
lwrist -3.01466
lhand -3.65117 41.8035
lfingers 7.12502
lthumb 22.0889 70.5619
rfemur -12.8762 -0.101472 29.7817
rtibia 26.6495
rfoot -19.333 -8.77215
rtoes 11.924
lfemur -20.4524 -7.50367 -16.7621
ltibia 39.2754
lfoot -25.0271 2.63835
ltoes 5.91477
96
root 0.239965 17.4043 -34.1699 4.30634 5.182 -4.45963
lowerback 7.96672 -2.38873 2.07386
upperback 0.899706 -2.9011 2.43714
thorax -3.50778 -1.45312 1.67329
lowerneck -9.68486 -5.73549 0.071038
upperneck 11.939 -8.5302 5.53934
head 5.43612 -3.78298 1.06446
rclavicle 2.31957e-014 6.06293e-015
rhumerus -37.661 -34.9186 -62.5151
rradius 17.8169
rwrist 3.19728
rhand -17.0539 17.3325
rfingers 7.12502
rthumb 9.18331 -12.4475
lclavicle 2.31957e-014 6.06293e-015
lhumerus -34.1468 3.71995 83.1628
lradius 39.2615
lwrist -3.22143
lhand -3.38317 42.2488
lfingers 7.12502
lthumb 22.3462 70.9765
rfemur -12.8934 -0.179377 29.8042
rtibia 26.8118
rfoot -19.3309 -8.92459
rtoes 12.26
lfemur -20.3287 -7.49345 -16.7893
ltibia 39.2081
lfoot -25.0845 2.17246
ltoes 7.2854
97
root 0.234136 17.4048 -34.1653 4.2395 5.28193 -4.53589
lowerback 7.91631 -2.36068 2.09672
upperback 0.876021 -2.8593 2.53913
thorax -3.50065 -1.4322 1.7599
lowerneck -9.09407 -5.61568 0.0831151
upperneck 11.4339 -8.30068 5.36832
head 5.16387 -3.7086 1.05278
rclavicle 4.30369e-014 3.77691e-015
rhumerus -37.9009 -35.1903 -61.9279
rradius 17.6478
rwrist 3.53999
rhand -16.7218 17.8356
rfingers 7.12502
rthumb 9.50375 -11.9301
lclavicle 4.30369e-014 3.77691e-015
lhumerus -34.4058 3.85575 83.205
lradius 39.1236
lwrist -3.44827
lhand -3.14249 42.0629
lfingers 7.12502
lthumb 22.5772 70.7627
rfemur -12.8333 -0.130642 29.9019
rtibia 26.8107
rfoot -19.4878 -9.37693
rtoes 12.6684
lfemur -20.2271 -7.49397 -16.7209
ltibia 39.1211
lfoot -24.7437 1.32728
ltoes 8.95615
98
root 0.228983 17.3995 -34.1693 4.30659 5.21798 -4.60157
lowerback 7.88323 -2.33636 2.17454
upperback 0.748299 -2.81675 2.56235
thorax -3.61791 -1.41233 1.7385
lowerneck -9.05756 -5.53533 0.30872
upperneck 11.6899 -8.16878 4.85342
head 5.20154 -3.66219 0.867213
rclavicle 8.56016e-015 -3.10104e-014
rhumerus -38.1429 -35.2306 -61.6941
rradius 17.6608
rwrist 3.78025
rhand -16.7955 17.9173
rfingers 7.12502
rthumb 9.43269 -11.8516
lclavicle 8.56016e-015 -3.10104e-014
lhumerus -34.6872 4.0989 83.0316
lradius 38.8166
lwrist -3.53717
lhand -3.1437 42.0376
lfingers 7.12502
lthumb 22.5761 70.7375
rfemur -12.9123 -0.131363 29.9994
rtibia 26.8388
rfoot -19.5436 -8.93564
rtoes 12.7494
lfemur -20.2689 -7.32854 -16.6724
ltibia 38.9645
lfoot -24.8016 1.37075
ltoes 7.36769
99
root 0.228162 17.3972 -34.1555 4.35252 5.11616 -4.6921
lowerback 7.54592 -2.29961 2.32011
upperback 0.79045 -2.77106 2.55996
thorax -3.39334 -1.39168 1.63243
lowerneck -9.41191 -5.36075 0.55028
upperneck 12.2313 -7.93821 4.36372
head 5.39388 -3.5512 0.678416
rclavicle 1.54058e-015 -3.8763e-015
rhumerus -38.2455 -35.486 -61.5042
rradius 17.6248
rwrist 3.82582
rhand -17.1148 18.3367
rfingers 7.12502
rthumb 9.12459 -11.4459
lclavicle 1.54058e-015 -3.8763e-015
lhumerus -34.8908 4.06034 82.9763
lradius 38.7736
lwrist -3.33665
lhand -3.43215 41.5009
lfingers 7.12502
lthumb 22.2992 70.2343
rfemur -12.935 -0.191211 30.0946
rtibia 26.7945
rfoot -19.2787 -9.26426
rtoes 13.3826
lfemur -20.1972 -7.29078 -16.589
ltibia 38.7613
lfoot -24.4601 0.96689
ltoes 9.59024
100
root 0.224859 17.401 -34.1489 4.37114 5.06692 -4.76296
lowerback 7.43457 -2.16649 2.17105
upperback 0.712592 -2.60248 2.73581
thorax -3.39859 -1.30532 1.87756
lowerneck -9.27994 -5.35828 0.580519
upperneck 12.3492 -7.89398 4.02132
head 5.39115 -3.55092 0.574006
rclavicle -3.86139e-014 1.23246e-014
rhumerus -38.4043 -35.7289 -60.8814
rradius 17.5432
rwrist 4.15429
rhand -16.9096 18.1233
rfingers 7.12502
rthumb 9.32261 -11.6505
lclavicle -3.86139e-014 1.23246e-014
lhumerus -35.0029 4.32034 83.1023
lradius 38.3525
lwrist -3.59258
lhand -3.20298 41.8525
lfingers 7.12502
lthumb 22.5192 70.5594
rfemur -12.9039 -0.354439 30.1877
rtibia 26.8181
rfoot -19.3257 -8.89562
rtoes 12.414
lfemur -19.9965 -7.30063 -16.4927
ltibia 38.4112
lfoot -23.9173 1.23336
ltoes 10.3734
